<?xml version="1.0" encoding="utf-8"?>
<!-- Generated by Mocodo 4.3.3 -->
<svg width="586" height="953" viewBox="0 0 586 953" xmlns="http://www.w3.org/2000/svg">
<rect x="0" y="0" width="586" height="953" fill="#f5f5f5" stroke="none" stroke-width="0"/>

<!-- Association RECEIVES -->
<g>
	<line x1="236" y1="124" x2="236" y2="292" stroke="#bf812d" stroke-width="1"/>
	<line x1="236" y1="503" x2="236" y2="292" stroke="#bf812d" stroke-width="1"/>
	<g>
		<path d="M269 263 a14 14 90 0 1 14 14 V291 h-94 V277 a14 14 90 0 1 14 -14" fill="#dfc27d" stroke="#dfc27d" stroke-width="0"/>
		<path d="M283 291 v16 a14 14 90 0 1 -14 14 H203 a14 14 90 0 1 -14 -14 V291 H94" fill="#f6e8c3" stroke="#f6e8c3" stroke-width="0"/>
		<rect x="189" y="263" width="94" height="58" fill="none" rx="14" stroke="#bf812d" stroke-width="1.5"/>
		<line x1="189" y1="291" x2="283" y2="291" stroke="#bf812d" stroke-width="1.5"/>
		<text x="196" y="284.3" fill="#000000" font-family="Copperplate" font-size="18">Receives</text>
	</g>
	<text x="241" y="195" fill="#01665e" font-family="Futura" font-size="11">1,1</text>
	<text x="212" y="372" fill="#01665e" font-family="Futura" font-size="11">0,N</text>
</g>

<!-- Association PERFORMS -->
<g>
	<line x1="388" y1="124" x2="388" y2="292" stroke="#bf812d" stroke-width="1"/>
	<line x1="236" y1="503" x2="388" y2="292" stroke="#bf812d" stroke-width="1"/>
	<g>
		<path d="M426 263 a14 14 90 0 1 14 14 V291 h-104 V277 a14 14 90 0 1 14 -14" fill="#dfc27d" stroke="#dfc27d" stroke-width="0"/>
		<path d="M440 291 v16 a14 14 90 0 1 -14 14 H350 a14 14 90 0 1 -14 -14 V291 H104" fill="#f6e8c3" stroke="#f6e8c3" stroke-width="0"/>
		<rect x="336" y="263" width="104" height="58" fill="none" rx="14" stroke="#bf812d" stroke-width="1.5"/>
		<line x1="336" y1="291" x2="440" y2="291" stroke="#bf812d" stroke-width="1.5"/>
		<text x="344" y="284.3" fill="#000000" font-family="Copperplate" font-size="18">Performs</text>
	</g>
	<text x="393" y="255" fill="#01665e" font-family="Futura" font-size="11">0,1</text>
	<text x="319" y="405.26" fill="#01665e" font-family="Futura" font-size="11">0,N</text>
</g>

<!-- Association REQUESTS -->
<g>
	<line x1="79" y1="292" x2="79" y2="503" stroke="#bf812d" stroke-width="1"/>
	<line x1="236" y1="503" x2="79" y2="503" stroke="#bf812d" stroke-width="1"/>
	<g>
		<path d="M115 474 a14 14 90 0 1 14 14 V502 h-100 V488 a14 14 90 0 1 14 -14" fill="#dfc27d" stroke="#dfc27d" stroke-width="0"/>
		<path d="M129 502 v16 a14 14 90 0 1 -14 14 H43 a14 14 90 0 1 -14 -14 V502 H100" fill="#f6e8c3" stroke="#f6e8c3" stroke-width="0"/>
		<rect x="29" y="474" width="100" height="58" fill="none" rx="14" stroke="#bf812d" stroke-width="1.5"/>
		<line x1="29" y1="502" x2="129" y2="502" stroke="#bf812d" stroke-width="1.5"/>
		<text x="36" y="495.3" fill="#000000" font-family="Copperplate" font-size="18">Requests</text>
	</g>
	<text x="84" y="372" fill="#01665e" font-family="Futura" font-size="11">1,1</text>
	<text x="134" y="519" fill="#01665e" font-family="Futura" font-size="11">0,N</text>
</g>

<!-- Association HOLDS -->
<g>
	<line x1="236" y1="503" x2="388" y2="503" stroke="#bf812d" stroke-width="1"/>
	<line x1="505" y1="503" x2="388" y2="503" stroke="#bf812d" stroke-width="1"/>
	<g>
		<path d="M419 466 a14 14 90 0 1 14 14 V494 h-90 V480 a14 14 90 0 1 14 -14" fill="#dfc27d" stroke="#dfc27d" stroke-width="0"/>
		<path d="M433 494 v32 a14 14 90 0 1 -14 14 H357 a14 14 90 0 1 -14 -14 V494 H90" fill="#f6e8c3" stroke="#f6e8c3" stroke-width="0"/>
		<rect x="343" y="466" width="90" height="74" fill="none" rx="14" stroke="#bf812d" stroke-width="1.5"/>
		<line x1="343" y1="494" x2="433" y2="494" stroke="#bf812d" stroke-width="1.5"/>
		<text x="360" y="487.3" fill="#000000" font-family="Copperplate" font-size="18">Holds</text>
		<text x="350" y="512.1" fill="#000000" font-family="Gill Sans" font-size="15">assigned_at</text>
		<text x="350" y="529.1" fill="#000000" font-family="Gill Sans" font-size="15">assigned_by</text>
	</g>
	<text x="319" y="519" fill="#01665e" font-family="Futura" font-size="11">0,N</text>
	<text x="438" y="519" fill="#01665e" font-family="Futura" font-size="11">0,N</text>
</g>

<!-- Association TEACHES -->
<g>
	<line x1="236" y1="503" x2="236" y2="704" stroke="#bf812d" stroke-width="1"/>
	<line x1="388" y1="863" x2="236" y2="704" stroke="#bf812d" stroke-width="1"/>
	<g>
		<path d="M266 675 a14 14 90 0 1 14 14 V703 h-88 V689 a14 14 90 0 1 14 -14" fill="#dfc27d" stroke="#dfc27d" stroke-width="0"/>
		<path d="M280 703 v16 a14 14 90 0 1 -14 14 H206 a14 14 90 0 1 -14 -14 V703 H88" fill="#f6e8c3" stroke="#f6e8c3" stroke-width="0"/>
		<rect x="192" y="675" width="88" height="58" fill="none" rx="14" stroke="#bf812d" stroke-width="1.5"/>
		<line x1="192" y1="703" x2="280" y2="703" stroke="#bf812d" stroke-width="1.5"/>
		<text x="199" y="696.3" fill="#000000" font-family="Copperplate" font-size="18">Teaches</text>
	</g>
	<text x="212" y="642" fill="#01665e" font-family="Futura" font-size="11">0,N</text>
	<text x="317" y="821.94" fill="#01665e" font-family="Futura" font-size="11">1,1</text>
</g>

<!-- Association ENROLLS -->
<g>
	<line x1="236" y1="503" x2="388" y2="704" stroke="#bf812d" stroke-width="1"/>
	<line x1="388" y1="863" x2="388" y2="704" stroke="#bf812d" stroke-width="1"/>
	<g>
		<path d="M425 650 a14 14 90 0 1 14 14 V678 h-102 V664 a14 14 90 0 1 14 -14" fill="#dfc27d" stroke="#dfc27d" stroke-width="0"/>
		<path d="M439 678 v66 a14 14 90 0 1 -14 14 H351 a14 14 90 0 1 -14 -14 V678 H102" fill="#f6e8c3" stroke="#f6e8c3" stroke-width="0"/>
		<rect x="337" y="650" width="102" height="108" fill="none" rx="14" stroke="#bf812d" stroke-width="1.5"/>
		<line x1="337" y1="678" x2="439" y2="678" stroke="#bf812d" stroke-width="1.5"/>
		<text x="350" y="671.3" fill="#000000" font-family="Copperplate" font-size="18">Enrolls</text>
		<text x="344" y="696.1" fill="#000000" font-family="Gill Sans" font-size="15">status</text>
		<text x="344" y="713.1" fill="#000000" font-family="Gill Sans" font-size="15">enrolled_at</text>
		<text x="344" y="730.1" fill="#000000" font-family="Gill Sans" font-size="15">completed_at</text>
		<text x="344" y="747" fill="#000000" font-family="Gill Sans" font-size="15">dropped_at</text>
	</g>
	<text x="319" y="603.84" fill="#01665e" font-family="Futura" font-size="11">0,N</text>
	<text x="393" y="774" fill="#01665e" font-family="Futura" font-size="11">0,N</text>
</g>

<!-- Association CONTAINS -->
<g>
	<line x1="388" y1="863" x2="236" y2="863" stroke="#bf812d" stroke-width="1"/>
	<line x1="79" y1="863" x2="236" y2="863" stroke="#bf812d" stroke-width="1"/>
	<g>
		<path d="M271 834 a14 14 90 0 1 14 14 V862 h-98 V848 a14 14 90 0 1 14 -14" fill="#dfc27d" stroke="#dfc27d" stroke-width="0"/>
		<path d="M285 862 v16 a14 14 90 0 1 -14 14 H201 a14 14 90 0 1 -14 -14 V862 H98" fill="#f6e8c3" stroke="#f6e8c3" stroke-width="0"/>
		<rect x="187" y="834" width="98" height="58" fill="none" rx="14" stroke="#bf812d" stroke-width="1.5"/>
		<line x1="187" y1="862" x2="285" y2="862" stroke="#bf812d" stroke-width="1.5"/>
		<text x="194" y="855.3" fill="#000000" font-family="Copperplate" font-size="18">Contains</text>
	</g>
	<text x="316" y="879" fill="#01665e" font-family="Futura" font-size="11">0,N</text>
	<text x="154" y="879" fill="#01665e" font-family="Futura" font-size="11">1,1</text>
</g>

<!-- Entity EMAIL_TOKEN -->
<g>
	<g>
		<rect x="172" y="69" width="128" height="30" fill="#80cdc1" stroke="none" stroke-width="0" opacity="1"/>
		<rect x="172" y="99" width="128" height="80" fill="#c7eae5" stroke="none" stroke-width="0" opacity="1"/>
		<rect x="172" y="69" width="128" height="110" fill="none" stroke="#35978f" stroke-width="1.5" opacity="1"/>
		<line x1="172" y1="99" x2="300" y2="99" stroke="#35978f" stroke-width="1.5"/>
	</g>
	<text x="181" y="90.3" fill="#000000" font-family="Copperplate" font-size="18">Email Token</text>
	<text x="180" y="116.1" fill="#000000" font-family="Gill Sans" font-size="15">token_id</text>
	<line x1="180" y1="119" x2="236" y2="119" stroke="#000000" stroke-width="1"/>
	<text x="180" y="133.1" fill="#000000" font-family="Gill Sans" font-size="15">token</text>
	<text x="180" y="150.1" fill="#000000" font-family="Gill Sans" font-size="15">expires_at</text>
	<text x="180" y="167" fill="#000000" font-family="Gill Sans" font-size="15">used_at</text>
</g>

<!-- Entity AUDIT_LOG -->
<g>
	<g>
		<rect x="332" y="9" width="112" height="30" fill="#80cdc1" stroke="none" stroke-width="0" opacity="1"/>
		<rect x="332" y="39" width="112" height="200" fill="#c7eae5" stroke="none" stroke-width="0" opacity="1"/>
		<rect x="332" y="9" width="112" height="230" fill="none" stroke="#35978f" stroke-width="1.5" opacity="1"/>
		<line x1="332" y1="39" x2="444" y2="39" stroke="#35978f" stroke-width="1.5"/>
	</g>
	<text x="344" y="30.3" fill="#000000" font-family="Copperplate" font-size="18">Audit Log</text>
	<text x="340" y="56" fill="#000000" font-family="Gill Sans" font-size="15">log_id</text>
	<line x1="340" y1="59" x2="379" y2="59" stroke="#000000" stroke-width="1"/>
	<text x="340" y="73" fill="#000000" font-family="Gill Sans" font-size="15">action_type</text>
	<text x="340" y="90" fill="#000000" font-family="Gill Sans" font-size="15">entity_type</text>
	<text x="340" y="107.1" fill="#000000" font-family="Gill Sans" font-size="15">entity_id</text>
	<text x="340" y="124.1" fill="#000000" font-family="Gill Sans" font-size="15">description</text>
	<text x="340" y="141.1" fill="#000000" font-family="Gill Sans" font-size="15">ip_address</text>
	<text x="340" y="158" fill="#000000" font-family="Gill Sans" font-size="15">user_agent</text>
	<text x="340" y="175" fill="#000000" font-family="Gill Sans" font-size="15">was_successful</text>
	<text x="340" y="192" fill="#000000" font-family="Gill Sans" font-size="15">error_message</text>
	<text x="340" y="209" fill="#000000" font-family="Gill Sans" font-size="15">metadata</text>
	<text x="340" y="226" fill="#000000" font-family="Gill Sans" font-size="15">created_at</text>
</g>

<!-- Entity RESET_TOKEN -->
<g>
	<g>
		<rect x="15" y="228" width="128" height="30" fill="#80cdc1" stroke="none" stroke-width="0" opacity="1"/>
		<rect x="15" y="258" width="128" height="98" fill="#c7eae5" stroke="none" stroke-width="0" opacity="1"/>
		<rect x="15" y="228" width="128" height="128" fill="none" stroke="#35978f" stroke-width="1.5" opacity="1"/>
		<line x1="15" y1="258" x2="143" y2="258" stroke="#35978f" stroke-width="1.5"/>
	</g>
	<text x="23" y="249.3" fill="#000000" font-family="Copperplate" font-size="18">Reset Token</text>
	<text x="23" y="275.1" fill="#000000" font-family="Gill Sans" font-size="15">token_id</text>
	<line x1="23" y1="278" x2="79" y2="278" stroke="#000000" stroke-width="1"/>
	<text x="23" y="292.1" fill="#000000" font-family="Gill Sans" font-size="15">token</text>
	<text x="23" y="309.1" fill="#000000" font-family="Gill Sans" font-size="15">expires_at</text>
	<text x="23" y="326" fill="#000000" font-family="Gill Sans" font-size="15">used_at</text>
	<text x="23" y="343" fill="#000000" font-family="Gill Sans" font-size="15">ip_address</text>
</g>

<!-- Entity USER -->
<g>
	<g>
		<rect x="158" y="380" width="156" height="30" fill="#80cdc1" stroke="none" stroke-width="0" opacity="1"/>
		<rect x="158" y="410" width="156" height="216" fill="#c7eae5" stroke="none" stroke-width="0" opacity="1"/>
		<rect x="158" y="380" width="156" height="246" fill="none" stroke="#35978f" stroke-width="1.5" opacity="1"/>
		<line x1="158" y1="410" x2="314" y2="410" stroke="#35978f" stroke-width="1.5"/>
	</g>
	<text x="214" y="401.3" fill="#000000" font-family="Copperplate" font-size="18">User</text>
	<text x="166" y="427" fill="#000000" font-family="Gill Sans" font-size="15">user_id</text>
	<line x1="166" y1="430" x2="214" y2="430" stroke="#000000" stroke-width="1"/>
	<text x="166" y="444" fill="#000000" font-family="Gill Sans" font-size="15">username</text>
	<text x="166" y="461" fill="#000000" font-family="Gill Sans" font-size="15">email</text>
	<text x="166" y="478.1" fill="#000000" font-family="Gill Sans" font-size="15">password</text>
	<text x="166" y="495.1" fill="#000000" font-family="Gill Sans" font-size="15">first_name</text>
	<text x="166" y="512.1" fill="#000000" font-family="Gill Sans" font-size="15">last_name</text>
	<text x="166" y="529.1" fill="#000000" font-family="Gill Sans" font-size="15">is_active</text>
	<text x="166" y="546" fill="#000000" font-family="Gill Sans" font-size="15">is_verified</text>
	<text x="166" y="563" fill="#000000" font-family="Gill Sans" font-size="15">is_locked</text>
	<text x="166" y="580" fill="#000000" font-family="Gill Sans" font-size="15">failed_login_attempts</text>
	<text x="166" y="597" fill="#000000" font-family="Gill Sans" font-size="15">last_login_at</text>
	<text x="166" y="614" fill="#000000" font-family="Gill Sans" font-size="15">password_changed_at</text>
</g>

<!-- Entity ROLE -->
<g>
	<g>
		<rect x="462" y="448" width="86" height="30" fill="#80cdc1" stroke="none" stroke-width="0" opacity="1"/>
		<rect x="462" y="478" width="86" height="80" fill="#c7eae5" stroke="none" stroke-width="0" opacity="1"/>
		<rect x="462" y="448" width="86" height="110" fill="none" stroke="#35978f" stroke-width="1.5" opacity="1"/>
		<line x1="462" y1="478" x2="548" y2="478" stroke="#35978f" stroke-width="1.5"/>
	</g>
	<text x="483" y="469.3" fill="#000000" font-family="Copperplate" font-size="18">Role</text>
	<text x="470" y="495.1" fill="#000000" font-family="Gill Sans" font-size="15">role_id</text>
	<line x1="470" y1="498" x2="516" y2="498" stroke="#000000" stroke-width="1"/>
	<text x="470" y="512.1" fill="#000000" font-family="Gill Sans" font-size="15">role_name</text>
	<text x="470" y="529.1" fill="#000000" font-family="Gill Sans" font-size="15">description</text>
	<text x="470" y="546" fill="#000000" font-family="Gill Sans" font-size="15">is_active</text>
</g>

<!-- Entity LESSON -->
<g>
	<g>
		<rect x="9" y="782" width="140" height="30" fill="#80cdc1" stroke="none" stroke-width="0" opacity="1"/>
		<rect x="9" y="812" width="140" height="132" fill="#c7eae5" stroke="none" stroke-width="0" opacity="1"/>
		<rect x="9" y="782" width="140" height="162" fill="none" stroke="#35978f" stroke-width="1.5" opacity="1"/>
		<line x1="9" y1="812" x2="149" y2="812" stroke="#35978f" stroke-width="1.5"/>
	</g>
	<text x="47" y="803.3" fill="#000000" font-family="Copperplate" font-size="18">Lesson</text>
	<text x="17" y="829" fill="#000000" font-family="Gill Sans" font-size="15">lesson_id</text>
	<line x1="17" y1="832" x2="76" y2="832" stroke="#000000" stroke-width="1"/>
	<text x="17" y="846.1" fill="#000000" font-family="Gill Sans" font-size="15">title</text>
	<text x="17" y="863.1" fill="#000000" font-family="Gill Sans" font-size="15">content_markdown</text>
	<text x="17" y="880.1" fill="#000000" font-family="Gill Sans" font-size="15">position</text>
	<text x="17" y="897" fill="#000000" font-family="Gill Sans" font-size="15">status</text>
	<text x="17" y="914" fill="#000000" font-family="Gill Sans" font-size="15">created_at</text>
	<text x="17" y="931" fill="#000000" font-family="Gill Sans" font-size="15">updated_at</text>
</g>

<!-- Entity COURSE -->
<g>
	<g>
		<rect x="340" y="782" width="96" height="30" fill="#80cdc1" stroke="none" stroke-width="0" opacity="1"/>
		<rect x="340" y="812" width="96" height="132" fill="#c7eae5" stroke="none" stroke-width="0" opacity="1"/>
		<rect x="340" y="782" width="96" height="162" fill="none" stroke="#35978f" stroke-width="1.5" opacity="1"/>
		<line x1="340" y1="812" x2="436" y2="812" stroke="#35978f" stroke-width="1.5"/>
	</g>
	<text x="354" y="803.3" fill="#000000" font-family="Copperplate" font-size="18">Course</text>
	<text x="348" y="829" fill="#000000" font-family="Gill Sans" font-size="15">course_id</text>
	<line x1="348" y1="832" x2="411" y2="832" stroke="#000000" stroke-width="1"/>
	<text x="348" y="846.1" fill="#000000" font-family="Gill Sans" font-size="15">title</text>
	<text x="348" y="863.1" fill="#000000" font-family="Gill Sans" font-size="15">description</text>
	<text x="348" y="880.1" fill="#000000" font-family="Gill Sans" font-size="15">status</text>
	<text x="348" y="897" fill="#000000" font-family="Gill Sans" font-size="15">published_at</text>
	<text x="348" y="914" fill="#000000" font-family="Gill Sans" font-size="15">created_at</text>
	<text x="348" y="931" fill="#000000" font-family="Gill Sans" font-size="15">updated_at</text>
</g>
</svg>