<?xml version="1.0" encoding="utf-8"?>
<!-- Generated by Mocodo 4.3.3 -->
<svg width="744" height="860" viewBox="0 0 744 860" xmlns="http://www.w3.org/2000/svg">
<rect x="0" y="0" width="744" height="860" fill="none" stroke="none" stroke-width="0"/>

<!-- Entity EMAIL_TOKEN -->
<g>
	<g>
		<rect x="250" y="68" width="128" height="30" fill="#97b8ff" stroke="none" stroke-width="0" opacity="1"/>
		<rect x="250" y="98" width="128" height="98" fill="#c0d4ff" stroke="none" stroke-width="0" opacity="1"/>
		<rect x="250" y="68" width="128" height="128" fill="none" stroke="#578dff" stroke-width="1.5" opacity="1"/>
		<line x1="250" y1="98" x2="378" y2="98" stroke="#578dff" stroke-width="1.5"/>
	</g>
	<text x="259" y="89.3" fill="#131114" font-family="Copperplate" font-size="18">Email Token</text>
	<text x="258" y="115.1" fill="#3e3c42" font-family="Gill Sans" font-size="15">token_id</text>
	<line x1="258" y1="118" x2="314" y2="118" stroke="#3e3c42" stroke-width="1"/>
	<text x="258" y="132.1" fill="#3e3c42" font-family="Gill Sans" font-size="15">token</text>
	<text x="258" y="149.1" fill="#3e3c42" font-family="Gill Sans" font-size="15">expires_at</text>
	<text x="258" y="166" fill="#3e3c42" font-family="Gill Sans" font-size="15">used_at</text>
	<text x="258" y="183" fill="#3e3c42" font-family="Gill Sans" font-size="15">#user_id</text>
</g>

<!-- Entity AUDIT_LOG -->
<g>
	<g>
		<rect x="450" y="9" width="112" height="30" fill="#97b8ff" stroke="none" stroke-width="0" opacity="1"/>
		<rect x="450" y="39" width="112" height="216" fill="#c0d4ff" stroke="none" stroke-width="0" opacity="1"/>
		<rect x="450" y="9" width="112" height="246" fill="none" stroke="#578dff" stroke-width="1.5" opacity="1"/>
		<line x1="450" y1="39" x2="562" y2="39" stroke="#578dff" stroke-width="1.5"/>
	</g>
	<text x="462" y="30.3" fill="#131114" font-family="Copperplate" font-size="18">Audit Log</text>
	<text x="458" y="56" fill="#3e3c42" font-family="Gill Sans" font-size="15">log_id</text>
	<line x1="458" y1="59" x2="497" y2="59" stroke="#3e3c42" stroke-width="1"/>
	<text x="458" y="73" fill="#3e3c42" font-family="Gill Sans" font-size="15">action_type</text>
	<text x="458" y="90" fill="#3e3c42" font-family="Gill Sans" font-size="15">entity_type</text>
	<text x="458" y="107.1" fill="#3e3c42" font-family="Gill Sans" font-size="15">entity_id</text>
	<text x="458" y="124.1" fill="#3e3c42" font-family="Gill Sans" font-size="15">description</text>
	<text x="458" y="141.1" fill="#3e3c42" font-family="Gill Sans" font-size="15">ip_address</text>
	<text x="458" y="158.1" fill="#3e3c42" font-family="Gill Sans" font-size="15">user_agent</text>
	<text x="458" y="175" fill="#3e3c42" font-family="Gill Sans" font-size="15">was_successful</text>
	<text x="458" y="192" fill="#3e3c42" font-family="Gill Sans" font-size="15">error_message</text>
	<text x="458" y="209" fill="#3e3c42" font-family="Gill Sans" font-size="15">metadata</text>
	<text x="458" y="226" fill="#3e3c42" font-family="Gill Sans" font-size="15">created_at</text>
	<text x="458" y="243" fill="#3e3c42" font-family="Gill Sans" font-size="15">#user_id</text>
</g>

<!-- Entity RESET_TOKEN -->
<g>
	<g>
		<rect x="44" y="207" width="128" height="30" fill="#97b8ff" stroke="none" stroke-width="0" opacity="1"/>
		<rect x="44" y="237" width="128" height="114" fill="#c0d4ff" stroke="none" stroke-width="0" opacity="1"/>
		<rect x="44" y="207" width="128" height="144" fill="none" stroke="#578dff" stroke-width="1.5" opacity="1"/>
		<line x1="44" y1="237" x2="172" y2="237" stroke="#578dff" stroke-width="1.5"/>
	</g>
	<text x="52" y="228.3" fill="#131114" font-family="Copperplate" font-size="18">Reset Token</text>
	<text x="52" y="254.1" fill="#3e3c42" font-family="Gill Sans" font-size="15">token_id</text>
	<line x1="52" y1="257" x2="108" y2="257" stroke="#3e3c42" stroke-width="1"/>
	<text x="52" y="271.1" fill="#3e3c42" font-family="Gill Sans" font-size="15">token</text>
	<text x="52" y="288.1" fill="#3e3c42" font-family="Gill Sans" font-size="15">expires_at</text>
	<text x="52" y="305.1" fill="#3e3c42" font-family="Gill Sans" font-size="15">used_at</text>
	<text x="52" y="322" fill="#3e3c42" font-family="Gill Sans" font-size="15">ip_address</text>
	<text x="52" y="339" fill="#3e3c42" font-family="Gill Sans" font-size="15">#user_id</text>
</g>

<!-- Entity USER -->
<g>
	<g>
		<rect x="236" y="303" width="156" height="30" fill="#97b8ff" stroke="none" stroke-width="0" opacity="1"/>
		<rect x="236" y="333" width="156" height="216" fill="#c0d4ff" stroke="none" stroke-width="0" opacity="1"/>
		<rect x="236" y="303" width="156" height="246" fill="none" stroke="#578dff" stroke-width="1.5" opacity="1"/>
		<line x1="236" y1="333" x2="392" y2="333" stroke="#578dff" stroke-width="1.5"/>
	</g>
	<text x="292" y="324.3" fill="#131114" font-family="Copperplate" font-size="18">User</text>
	<text x="244" y="350" fill="#3e3c42" font-family="Gill Sans" font-size="15">user_id</text>
	<line x1="244" y1="353" x2="292" y2="353" stroke="#3e3c42" stroke-width="1"/>
	<text x="244" y="367" fill="#3e3c42" font-family="Gill Sans" font-size="15">username</text>
	<text x="244" y="384" fill="#3e3c42" font-family="Gill Sans" font-size="15">email</text>
	<text x="244" y="401.1" fill="#3e3c42" font-family="Gill Sans" font-size="15">password</text>
	<text x="244" y="418.1" fill="#3e3c42" font-family="Gill Sans" font-size="15">first_name</text>
	<text x="244" y="435.1" fill="#3e3c42" font-family="Gill Sans" font-size="15">last_name</text>
	<text x="244" y="452.1" fill="#3e3c42" font-family="Gill Sans" font-size="15">is_active</text>
	<text x="244" y="469" fill="#3e3c42" font-family="Gill Sans" font-size="15">is_verified</text>
	<text x="244" y="486" fill="#3e3c42" font-family="Gill Sans" font-size="15">is_locked</text>
	<text x="244" y="503" fill="#3e3c42" font-family="Gill Sans" font-size="15">failed_login_attempts</text>
	<text x="244" y="520" fill="#3e3c42" font-family="Gill Sans" font-size="15">last_login_at</text>
	<text x="244" y="537" fill="#3e3c42" font-family="Gill Sans" font-size="15">password_changed_at</text>
</g>

<!-- Entity HOLDS -->
<g>
	<g>
		<rect x="460" y="371" width="92" height="30" fill="#97b8ff" stroke="none" stroke-width="0" opacity="1"/>
		<rect x="460" y="401" width="92" height="80" fill="#c0d4ff" stroke="none" stroke-width="0" opacity="1"/>
		<rect x="460" y="371" width="92" height="110" fill="none" stroke="#578dff" stroke-width="1.5" opacity="1"/>
		<line x1="460" y1="401" x2="552" y2="401" stroke="#578dff" stroke-width="1.5"/>
	</g>
	<text x="478" y="392.3" fill="#131114" font-family="Copperplate" font-size="18">Holds</text>
	<text x="468" y="418.1" fill="#3e3c42" font-family="Gill Sans" font-size="15">#user_id</text>
	<line x1="468" y1="421" x2="525" y2="421" stroke="#3e3c42" stroke-width="1"/>
	<text x="468" y="435.1" fill="#3e3c42" font-family="Gill Sans" font-size="15">#role_id</text>
	<line x1="468" y1="438" x2="523" y2="438" stroke="#3e3c42" stroke-width="1"/>
	<text x="468" y="452.1" fill="#3e3c42" font-family="Gill Sans" font-size="15">assigned_at</text>
	<text x="468" y="469" fill="#3e3c42" font-family="Gill Sans" font-size="15">assigned_by</text>
</g>

<!-- Entity ROLE -->
<g>
	<g>
		<rect x="620" y="371" width="86" height="30" fill="#97b8ff" stroke="none" stroke-width="0" opacity="1"/>
		<rect x="620" y="401" width="86" height="80" fill="#c0d4ff" stroke="none" stroke-width="0" opacity="1"/>
		<rect x="620" y="371" width="86" height="110" fill="none" stroke="#578dff" stroke-width="1.5" opacity="1"/>
		<line x1="620" y1="401" x2="706" y2="401" stroke="#578dff" stroke-width="1.5"/>
	</g>
	<text x="641" y="392.3" fill="#131114" font-family="Copperplate" font-size="18">Role</text>
	<text x="628" y="418.1" fill="#3e3c42" font-family="Gill Sans" font-size="15">role_id</text>
	<line x1="628" y1="421" x2="674" y2="421" stroke="#3e3c42" stroke-width="1"/>
	<text x="628" y="435.1" fill="#3e3c42" font-family="Gill Sans" font-size="15">role_name</text>
	<text x="628" y="452.1" fill="#3e3c42" font-family="Gill Sans" font-size="15">description</text>
	<text x="628" y="469" fill="#3e3c42" font-family="Gill Sans" font-size="15">is_active</text>
</g>

<!-- Entity ENROLLS -->
<g>
	<g>
		<rect x="454" y="505" width="104" height="30" fill="#97b8ff" stroke="none" stroke-width="0" opacity="1"/>
		<rect x="454" y="535" width="104" height="114" fill="#c0d4ff" stroke="none" stroke-width="0" opacity="1"/>
		<rect x="454" y="505" width="104" height="144" fill="none" stroke="#578dff" stroke-width="1.5" opacity="1"/>
		<line x1="454" y1="535" x2="558" y2="535" stroke="#578dff" stroke-width="1.5"/>
	</g>
	<text x="468" y="526.3" fill="#131114" font-family="Copperplate" font-size="18">Enrolls</text>
	<text x="462" y="552.1" fill="#3e3c42" font-family="Gill Sans" font-size="15">#user_id</text>
	<line x1="462" y1="555" x2="519" y2="555" stroke="#3e3c42" stroke-width="1"/>
	<text x="462" y="569.1" fill="#3e3c42" font-family="Gill Sans" font-size="15">#course_id</text>
	<line x1="462" y1="572" x2="534" y2="572" stroke="#3e3c42" stroke-width="1"/>
	<text x="462" y="586.1" fill="#3e3c42" font-family="Gill Sans" font-size="15">status</text>
	<text x="462" y="603.1" fill="#3e3c42" font-family="Gill Sans" font-size="15">enrolled_at</text>
	<text x="462" y="620" fill="#3e3c42" font-family="Gill Sans" font-size="15">completed_at</text>
	<text x="462" y="637" fill="#3e3c42" font-family="Gill Sans" font-size="15">dropped_at</text>
</g>

<!-- Entity LESSON -->
<g>
	<g>
		<rect x="38" y="673" width="140" height="30" fill="#97b8ff" stroke="none" stroke-width="0" opacity="1"/>
		<rect x="38" y="703" width="140" height="148" fill="#c0d4ff" stroke="none" stroke-width="0" opacity="1"/>
		<rect x="38" y="673" width="140" height="178" fill="none" stroke="#578dff" stroke-width="1.5" opacity="1"/>
		<line x1="38" y1="703" x2="178" y2="703" stroke="#578dff" stroke-width="1.5"/>
	</g>
	<text x="76" y="694.3" fill="#131114" font-family="Copperplate" font-size="18">Lesson</text>
	<text x="46" y="720" fill="#3e3c42" font-family="Gill Sans" font-size="15">lesson_id</text>
	<line x1="46" y1="723" x2="105" y2="723" stroke="#3e3c42" stroke-width="1"/>
	<text x="46" y="737.1" fill="#3e3c42" font-family="Gill Sans" font-size="15">title</text>
	<text x="46" y="754.1" fill="#3e3c42" font-family="Gill Sans" font-size="15">content_markdown</text>
	<text x="46" y="771.1" fill="#3e3c42" font-family="Gill Sans" font-size="15">position</text>
	<text x="46" y="788.1" fill="#3e3c42" font-family="Gill Sans" font-size="15">status</text>
	<text x="46" y="805" fill="#3e3c42" font-family="Gill Sans" font-size="15">created_at</text>
	<text x="46" y="822" fill="#3e3c42" font-family="Gill Sans" font-size="15">updated_at</text>
	<text x="46" y="839" fill="#3e3c42" font-family="Gill Sans" font-size="15">#course_id</text>
</g>

<!-- Entity COURSE -->
<g>
	<g>
		<rect x="458" y="673" width="96" height="30" fill="#97b8ff" stroke="none" stroke-width="0" opacity="1"/>
		<rect x="458" y="703" width="96" height="148" fill="#c0d4ff" stroke="none" stroke-width="0" opacity="1"/>
		<rect x="458" y="673" width="96" height="178" fill="none" stroke="#578dff" stroke-width="1.5" opacity="1"/>
		<line x1="458" y1="703" x2="554" y2="703" stroke="#578dff" stroke-width="1.5"/>
	</g>
	<text x="472" y="694.3" fill="#131114" font-family="Copperplate" font-size="18">Course</text>
	<text x="466" y="720" fill="#3e3c42" font-family="Gill Sans" font-size="15">course_id</text>
	<line x1="466" y1="723" x2="529" y2="723" stroke="#3e3c42" stroke-width="1"/>
	<text x="466" y="737.1" fill="#3e3c42" font-family="Gill Sans" font-size="15">title</text>
	<text x="466" y="754.1" fill="#3e3c42" font-family="Gill Sans" font-size="15">description</text>
	<text x="466" y="771.1" fill="#3e3c42" font-family="Gill Sans" font-size="15">status</text>
	<text x="466" y="788.1" fill="#3e3c42" font-family="Gill Sans" font-size="15">published_at</text>
	<text x="466" y="805" fill="#3e3c42" font-family="Gill Sans" font-size="15">created_at</text>
	<text x="466" y="822" fill="#3e3c42" font-family="Gill Sans" font-size="15">updated_at</text>
	<text x="466" y="839" fill="#3e3c42" font-family="Gill Sans" font-size="15">#user_id</text>
</g>

<!-- Link from &quot;user_id&quot; (EMAIL_TOKEN) to &quot;user_id&quot; (USER) -->
<path d="M378 180.5 C426 264 440 347.5 392 347.5" fill="none" stroke="#726f83" stroke-width="1"/>
<polygon points="392 347.5 404 341.5 400 347.5 404 353.5" fill="#726f83" stroke-width="0"/>
<circle cx="378" cy="180.5" r="1.5" stroke="#726f83" stroke-width="1.5" fill="#726f83"/>

<!-- Link from &quot;user_id&quot; (AUDIT_LOG) to &quot;user_id&quot; (USER) -->
<path d="M450 240.5 C421 294 430.67 347.5 392 347.5" fill="none" stroke="#726f83" stroke-width="1"/>
<polygon points="392 347.5 404 341.5 400 347.5 404 353.5" fill="#726f83" stroke-width="0"/>
<circle cx="450" cy="240.5" r="1.5" stroke="#726f83" stroke-width="1.5" fill="#726f83"/>

<!-- Link from &quot;user_id&quot; (RESET_TOKEN) to &quot;user_id&quot; (USER) -->
<path d="M172 336.5 C204 342 193.33 347.5 236 347.5" fill="none" stroke="#726f83" stroke-width="1"/>
<polygon points="236 347.5 224 353.5 228 347.5 224 341.5" fill="#726f83" stroke-width="0"/>
<circle cx="172" cy="336.5" r="1.5" stroke="#726f83" stroke-width="1.5" fill="#726f83"/>

<!-- Link from &quot;user_id&quot; (HOLDS) to &quot;user_id&quot; (USER) -->
<path d="M460 415.5 C426 381.5 437.33 347.5 392 347.5" fill="none" stroke="#726f83" stroke-width="1"/>
<polygon points="392 347.5 404 341.5 400 347.5 404 353.5" fill="#726f83" stroke-width="0"/>
<circle cx="460" cy="415.5" r="1.5" stroke="#726f83" stroke-width="1.5" fill="#726f83"/>

<!-- Link from &quot;role_id&quot; (HOLDS) to &quot;role_id&quot; (ROLE) -->
<path d="M552 432.5 C586 424 574.67 415.5 620 415.5" fill="none" stroke="#726f83" stroke-width="1"/>
<polygon points="620 415.5 608 421.5 612 415.5 608 409.5" fill="#726f83" stroke-width="0"/>
<circle cx="552" cy="432.5" r="1.5" stroke="#726f83" stroke-width="1.5" fill="#726f83"/>

<!-- Link from &quot;user_id&quot; (ENROLLS) to &quot;user_id&quot; (USER) -->
<path d="M454 549.5 C423 448.5 433.33 347.5 392 347.5" fill="none" stroke="#726f83" stroke-width="1"/>
<polygon points="392 347.5 404 341.5 400 347.5 404 353.5" fill="#726f83" stroke-width="0"/>
<circle cx="454" cy="549.5" r="1.5" stroke="#726f83" stroke-width="1.5" fill="#726f83"/>

<!-- Link from &quot;course_id&quot; (ENROLLS) to &quot;course_id&quot; (COURSE) -->
<path d="M454 566.5 C406 642 410 717.5 458 717.5" fill="none" stroke="#726f83" stroke-width="1"/>
<polygon points="458 717.5 446 723.5 450 717.5 446 711.5" fill="#726f83" stroke-width="0"/>
<circle cx="454" cy="566.5" r="1.5" stroke="#726f83" stroke-width="1.5" fill="#726f83"/>

<!-- Link from &quot;course_id&quot; (LESSON) to &quot;course_id&quot; (COURSE) -->
<path d="M178 836.5 C318 777 271.33 717.5 458 717.5" fill="none" stroke="#726f83" stroke-width="1"/>
<polygon points="458 717.5 446 723.5 450 717.5 446 711.5" fill="#726f83" stroke-width="0"/>
<circle cx="178" cy="836.5" r="1.5" stroke="#726f83" stroke-width="1.5" fill="#726f83"/>

<!-- Link from &quot;user_id&quot; (COURSE) to &quot;user_id&quot; (USER) -->
<path d="M458 836.5 C425 592 436 347.5 392 347.5" fill="none" stroke="#726f83" stroke-width="1"/>
<polygon points="392 347.5 404 341.5 400 347.5 404 353.5" fill="#726f83" stroke-width="0"/>
<circle cx="458" cy="836.5" r="1.5" stroke="#726f83" stroke-width="1.5" fill="#726f83"/>
</svg>