<?xml version="1.0" encoding="UTF-8" standalone="no"?>
<!DOCTYPE svg PUBLIC "-//W3C//DTD SVG 1.1//EN"
 "http://www.w3.org/Graphics/SVG/1.1/DTD/svg11.dtd">
<!-- Generated by graphviz version 12.1.2 (20240928.0832)
 -->
<!-- Title: learndev Pages: 1 -->
<svg width="2267pt" height="1432pt"
 viewBox="0.00 0.00 2266.61 1431.60" xmlns="http://www.w3.org/2000/svg" xmlns:xlink="http://www.w3.org/1999/xlink">
<g id="graph0" class="graph" transform="scale(1 1) rotate(0) translate(4 1427.6)">
<title>learndev</title>
<polygon fill="white" stroke="none" points="-4,4 -4,-1427.6 2262.61,-1427.6 2262.61,4 -4,4"/>
<!-- public.users -->
<g id="node1" class="node">
<title>public.users</title>
<polygon fill="#efefef" stroke="none" points="1194.75,-412.8 1194.75,-448.4 1519.24,-448.4 1519.24,-412.8 1194.75,-412.8"/>
<polygon fill="none" stroke="black" points="1194.75,-412.8 1194.75,-448.4 1519.24,-448.4 1519.24,-412.8 1194.75,-412.8"/>
<text text-anchor="start" x="1251.51" y="-426.2" font-family="Arial Bold" font-size="18.00">public.users</text>
<text text-anchor="start" x="1337.99" y="-426.2" font-family="Arial" font-size="14.00">    </text>
<text text-anchor="start" x="1369.11" y="-426.2" font-family="Arial" font-size="14.00" fill="#666666">[BASE TABLE]</text>
<polygon fill="none" stroke="black" points="1194.75,-382 1194.75,-412.8 1519.24,-412.8 1519.24,-382 1194.75,-382"/>
<text text-anchor="start" x="1201.75" y="-394.2" font-family="Arial" font-size="14.00">user_id </text>
<text text-anchor="start" x="1251.56" y="-394.2" font-family="Arial" font-size="14.00" fill="#666666">[uuid]</text>
<polygon fill="none" stroke="black" points="1194.75,-351.2 1194.75,-382 1519.24,-382 1519.24,-351.2 1194.75,-351.2"/>
<text text-anchor="start" x="1201.75" y="-363.4" font-family="Arial" font-size="14.00">username </text>
<text text-anchor="start" x="1267.89" y="-363.4" font-family="Arial" font-size="14.00" fill="#666666">[varchar(50)]</text>
<polygon fill="none" stroke="black" points="1194.75,-320.4 1194.75,-351.2 1519.24,-351.2 1519.24,-320.4 1194.75,-320.4"/>
<text text-anchor="start" x="1201.75" y="-332.6" font-family="Arial" font-size="14.00">email </text>
<text text-anchor="start" x="1239.09" y="-332.6" font-family="Arial" font-size="14.00" fill="#666666">[varchar(255)]</text>
<polygon fill="none" stroke="black" points="1194.75,-289.6 1194.75,-320.4 1519.24,-320.4 1519.24,-289.6 1194.75,-289.6"/>
<text text-anchor="start" x="1201.75" y="-301.8" font-family="Arial" font-size="14.00">password </text>
<text text-anchor="start" x="1265.56" y="-301.8" font-family="Arial" font-size="14.00" fill="#666666">[varchar(255)]</text>
<polygon fill="none" stroke="black" points="1194.75,-258.8 1194.75,-289.6 1519.24,-289.6 1519.24,-258.8 1194.75,-258.8"/>
<text text-anchor="start" x="1201.75" y="-271" font-family="Arial" font-size="14.00">first_name </text>
<text text-anchor="start" x="1271" y="-271" font-family="Arial" font-size="14.00" fill="#666666">[varchar(100)]</text>
<polygon fill="none" stroke="black" points="1194.75,-228 1194.75,-258.8 1519.24,-258.8 1519.24,-228 1194.75,-228"/>
<text text-anchor="start" x="1201.75" y="-240.2" font-family="Arial" font-size="14.00">last_name </text>
<text text-anchor="start" x="1270.23" y="-240.2" font-family="Arial" font-size="14.00" fill="#666666">[varchar(100)]</text>
<polygon fill="none" stroke="black" points="1194.75,-197.2 1194.75,-228 1519.24,-228 1519.24,-197.2 1194.75,-197.2"/>
<text text-anchor="start" x="1201.75" y="-209.4" font-family="Arial" font-size="14.00">is_active </text>
<text text-anchor="start" x="1260.11" y="-209.4" font-family="Arial" font-size="14.00" fill="#666666">[boolean]</text>
<polygon fill="none" stroke="black" points="1194.75,-166.4 1194.75,-197.2 1519.24,-197.2 1519.24,-166.4 1194.75,-166.4"/>
<text text-anchor="start" x="1201.75" y="-178.6" font-family="Arial" font-size="14.00">is_verified </text>
<text text-anchor="start" x="1268.67" y="-178.6" font-family="Arial" font-size="14.00" fill="#666666">[boolean]</text>
<polygon fill="none" stroke="black" points="1194.75,-135.6 1194.75,-166.4 1519.24,-166.4 1519.24,-135.6 1194.75,-135.6"/>
<text text-anchor="start" x="1201.75" y="-147.8" font-family="Arial" font-size="14.00">is_locked </text>
<text text-anchor="start" x="1264" y="-147.8" font-family="Arial" font-size="14.00" fill="#666666">[boolean]</text>
<polygon fill="none" stroke="black" points="1194.75,-104.8 1194.75,-135.6 1519.24,-135.6 1519.24,-104.8 1194.75,-104.8"/>
<text text-anchor="start" x="1201.75" y="-117" font-family="Arial" font-size="14.00">failed_login_attempts </text>
<text text-anchor="start" x="1337.95" y="-117" font-family="Arial" font-size="14.00" fill="#666666">[integer]</text>
<polygon fill="none" stroke="black" points="1194.75,-74 1194.75,-104.8 1519.24,-104.8 1519.24,-74 1194.75,-74"/>
<text text-anchor="start" x="1201.75" y="-86.2" font-family="Arial" font-size="14.00">last_login_at </text>
<text text-anchor="start" x="1284.25" y="-86.2" font-family="Arial" font-size="14.00" fill="#666666">[timestamp with time zone]</text>
<polygon fill="none" stroke="black" points="1194.75,-43.2 1194.75,-74 1519.24,-74 1519.24,-43.2 1194.75,-43.2"/>
<text text-anchor="start" x="1201.75" y="-55.4" font-family="Arial" font-size="14.00">password_changed_at </text>
<text text-anchor="start" x="1346.52" y="-55.4" font-family="Arial" font-size="14.00" fill="#666666">[timestamp with time zone]</text>
</g>
<!-- public.roles -->
<g id="node2" class="node">
<title>public.roles</title>
<polygon fill="#efefef" stroke="none" points="1650.51,-289.6 1650.51,-325.2 1873.48,-325.2 1873.48,-289.6 1650.51,-289.6"/>
<polygon fill="none" stroke="black" points="1650.51,-289.6 1650.51,-325.2 1873.48,-325.2 1873.48,-289.6 1650.51,-289.6"/>
<text text-anchor="start" x="1657.51" y="-303" font-family="Arial Bold" font-size="18.00">public.roles</text>
<text text-anchor="start" x="1741.99" y="-303" font-family="Arial" font-size="14.00">    </text>
<text text-anchor="start" x="1773.11" y="-303" font-family="Arial" font-size="14.00" fill="#666666">[BASE TABLE]</text>
<polygon fill="none" stroke="black" points="1650.51,-258.8 1650.51,-289.6 1873.48,-289.6 1873.48,-258.8 1650.51,-258.8"/>
<text text-anchor="start" x="1657.51" y="-271" font-family="Arial" font-size="14.00">role_id </text>
<text text-anchor="start" x="1703.43" y="-271" font-family="Arial" font-size="14.00" fill="#666666">[bigint]</text>
<polygon fill="none" stroke="black" points="1650.51,-228 1650.51,-258.8 1873.48,-258.8 1873.48,-228 1650.51,-228"/>
<text text-anchor="start" x="1657.51" y="-240.2" font-family="Arial" font-size="14.00">role_name </text>
<text text-anchor="start" x="1727.55" y="-240.2" font-family="Arial" font-size="14.00" fill="#666666">[varchar(50)]</text>
<polygon fill="none" stroke="black" points="1650.51,-197.2 1650.51,-228 1873.48,-228 1873.48,-197.2 1650.51,-197.2"/>
<text text-anchor="start" x="1657.51" y="-209.4" font-family="Arial" font-size="14.00">description </text>
<text text-anchor="start" x="1729.1" y="-209.4" font-family="Arial" font-size="14.00" fill="#666666">[varchar(255)]</text>
<polygon fill="none" stroke="black" points="1650.51,-166.4 1650.51,-197.2 1873.48,-197.2 1873.48,-166.4 1650.51,-166.4"/>
<text text-anchor="start" x="1657.51" y="-178.6" font-family="Arial" font-size="14.00">is_active </text>
<text text-anchor="start" x="1715.87" y="-178.6" font-family="Arial" font-size="14.00" fill="#666666">[boolean]</text>
</g>
<!-- public.user_roles -->
<g id="node3" class="node">
<title>public.user_roles</title>
<polygon fill="#efefef" stroke="none" points="1631.02,-817.2 1631.02,-852.8 1892.98,-852.8 1892.98,-817.2 1631.02,-817.2"/>
<polygon fill="none" stroke="black" points="1631.02,-817.2 1631.02,-852.8 1892.98,-852.8 1892.98,-817.2 1631.02,-817.2"/>
<text text-anchor="start" x="1638.02" y="-830.6" font-family="Arial Bold" font-size="18.00">public.user_roles</text>
<text text-anchor="start" x="1761.49" y="-830.6" font-family="Arial" font-size="14.00">    </text>
<text text-anchor="start" x="1792.6" y="-830.6" font-family="Arial" font-size="14.00" fill="#666666">[BASE TABLE]</text>
<polygon fill="none" stroke="black" points="1631.02,-786.4 1631.02,-817.2 1892.98,-817.2 1892.98,-786.4 1631.02,-786.4"/>
<text text-anchor="start" x="1638.02" y="-798.6" font-family="Arial" font-size="14.00">user_id </text>
<text text-anchor="start" x="1687.82" y="-798.6" font-family="Arial" font-size="14.00" fill="#666666">[uuid]</text>
<polygon fill="none" stroke="black" points="1631.02,-755.6 1631.02,-786.4 1892.98,-786.4 1892.98,-755.6 1631.02,-755.6"/>
<text text-anchor="start" x="1638.02" y="-767.8" font-family="Arial" font-size="14.00">role_id </text>
<text text-anchor="start" x="1683.93" y="-767.8" font-family="Arial" font-size="14.00" fill="#666666">[bigint]</text>
<polygon fill="none" stroke="black" points="1631.02,-724.8 1631.02,-755.6 1892.98,-755.6 1892.98,-724.8 1631.02,-724.8"/>
<text text-anchor="start" x="1638.02" y="-737" font-family="Arial" font-size="14.00">assigned_at </text>
<text text-anchor="start" x="1717.41" y="-737" font-family="Arial" font-size="14.00" fill="#666666">[timestamp with time zone]</text>
<polygon fill="none" stroke="black" points="1631.02,-694 1631.02,-724.8 1892.98,-724.8 1892.98,-694 1631.02,-694"/>
<text text-anchor="start" x="1638.02" y="-706.2" font-family="Arial" font-size="14.00">assigned_by </text>
<text text-anchor="start" x="1720.52" y="-706.2" font-family="Arial" font-size="14.00" fill="#666666">[uuid]</text>
</g>
<!-- public.user_roles&#45;&gt;public.users -->
<g id="edge1" class="edge">
<title>public.user_roles:assigned_by&#45;&gt;public.users:user_id</title>
<path fill="none" stroke="black" d="M1619.88,-708.84C1550.22,-700.66 1601.38,-603.74 1574,-527.6 1552.81,-468.69 1582.85,-397.4 1520.24,-397.4"/>
<polygon fill="black" stroke="black" points="1619.7,-708.83 1629.44,-713.87 1625.02,-709.13 1629.35,-709.36 1629.35,-709.36 1629.35,-709.36 1625.02,-709.13 1629.93,-704.89 1619.7,-708.83"/>
<text text-anchor="start" x="1637.02" y="-719.4" font-family="Arial" font-size="10.00">FOREIGN KEY (assigned_by) REFERENCES users(user_id) ON DELETE SET NULL</text>
</g>
<!-- public.user_roles&#45;&gt;public.users -->
<g id="edge2" class="edge">
<title>public.user_roles:user_id&#45;&gt;public.users:user_id</title>
<path fill="none" stroke="black" d="M1619.95,-799.66C1570.53,-777.17 1591.1,-583.59 1574,-527.6 1555.7,-467.73 1582.85,-397.4 1520.24,-397.4"/>
<polygon fill="black" stroke="black" points="1619.91,-799.65 1628.76,-806.13 1625.13,-800.76 1629.36,-801.66 1629.36,-801.66 1629.36,-801.66 1625.13,-800.76 1630.62,-797.33 1619.91,-799.65"/>
<text text-anchor="start" x="1637.02" y="-811.8" font-family="Arial" font-size="10.00">FOREIGN KEY (user_id) REFERENCES users(user_id) ON DELETE CASCADE</text>
</g>
<!-- public.user_roles&#45;&gt;public.roles -->
<g id="edge3" class="edge">
<title>public.user_roles:role_id&#45;&gt;public.roles:role_id</title>
<path fill="none" stroke="black" d="M1904.25,-769.49C2003.11,-739.5 1981.41,-274.2 1874.48,-274.2"/>
<polygon fill="black" stroke="black" points="1904.2,-769.49 1893.65,-766.5 1898.92,-770.27 1894.64,-770.9 1894.64,-770.9 1894.64,-770.9 1898.92,-770.27 1894.96,-775.4 1904.2,-769.49"/>
<text text-anchor="start" x="1900.98" y="-781" font-family="Arial" font-size="10.00">FOREIGN KEY (role_id) REFERENCES roles(role_id) ON DELETE CASCADE</text>
</g>
<!-- public.email_tokens -->
<g id="node4" class="node">
<title>public.email_tokens</title>
<polygon fill="#efefef" stroke="none" points="88.02,-832.6 88.02,-868.2 371.97,-868.2 371.97,-832.6 88.02,-832.6"/>
<polygon fill="none" stroke="black" points="88.02,-832.6 88.02,-868.2 371.97,-868.2 371.97,-832.6 88.02,-832.6"/>
<text text-anchor="start" x="95.02" y="-846" font-family="Arial Bold" font-size="18.00">public.email_tokens</text>
<text text-anchor="start" x="240.49" y="-846" font-family="Arial" font-size="14.00">    </text>
<text text-anchor="start" x="271.6" y="-846" font-family="Arial" font-size="14.00" fill="#666666">[BASE TABLE]</text>
<polygon fill="none" stroke="black" points="88.02,-801.8 88.02,-832.6 371.97,-832.6 371.97,-801.8 88.02,-801.8"/>
<text text-anchor="start" x="95.02" y="-814" font-family="Arial" font-size="14.00">token_id </text>
<text text-anchor="start" x="151.84" y="-814" font-family="Arial" font-size="14.00" fill="#666666">[bigint]</text>
<polygon fill="none" stroke="black" points="88.02,-771 88.02,-801.8 371.97,-801.8 371.97,-771 88.02,-771"/>
<text text-anchor="start" x="95.02" y="-783.2" font-family="Arial" font-size="14.00">token </text>
<text text-anchor="start" x="133.16" y="-783.2" font-family="Arial" font-size="14.00" fill="#666666">[varchar(255)]</text>
<polygon fill="none" stroke="black" points="88.02,-740.2 88.02,-771 371.97,-771 371.97,-740.2 88.02,-740.2"/>
<text text-anchor="start" x="95.02" y="-752.4" font-family="Arial" font-size="14.00">expires_at </text>
<text text-anchor="start" x="163.5" y="-752.4" font-family="Arial" font-size="14.00" fill="#666666">[timestamp with time zone]</text>
<polygon fill="none" stroke="black" points="88.02,-709.4 88.02,-740.2 371.97,-740.2 371.97,-709.4 88.02,-709.4"/>
<text text-anchor="start" x="95.02" y="-721.6" font-family="Arial" font-size="14.00">used_at </text>
<text text-anchor="start" x="148.73" y="-721.6" font-family="Arial" font-size="14.00" fill="#666666">[timestamp with time zone]</text>
<polygon fill="none" stroke="black" points="88.02,-678.6 88.02,-709.4 371.97,-709.4 371.97,-678.6 88.02,-678.6"/>
<text text-anchor="start" x="95.02" y="-690.8" font-family="Arial" font-size="14.00">user_id </text>
<text text-anchor="start" x="144.82" y="-690.8" font-family="Arial" font-size="14.00" fill="#666666">[uuid]</text>
</g>
<!-- public.email_tokens&#45;&gt;public.users -->
<g id="edge4" class="edge">
<title>public.email_tokens:user_id&#45;&gt;public.users:user_id</title>
<path fill="none" stroke="black" d="M383.18,-693.2C442.42,-682.89 368.7,-576.14 424,-527.6 554.38,-413.15 1020.26,-397.4 1193.75,-397.4"/>
<polygon fill="black" stroke="black" points="383.28,-693.19 372.95,-689.49 377.96,-693.61 373.64,-693.95 373.64,-693.95 373.64,-693.95 377.96,-693.61 373.66,-698.46 383.28,-693.19"/>
<text text-anchor="start" x="7" y="-704" font-family="Arial" font-size="10.00">FOREIGN KEY (user_id) REFERENCES users(user_id) ON DELETE CASCADE</text>
</g>
<!-- public.reset_tokens -->
<g id="node5" class="node">
<title>public.reset_tokens</title>
<polygon fill="#efefef" stroke="none" points="476.02,-848 476.02,-883.6 753.97,-883.6 753.97,-848 476.02,-848"/>
<polygon fill="none" stroke="black" points="476.02,-848 476.02,-883.6 753.97,-883.6 753.97,-848 476.02,-848"/>
<text text-anchor="start" x="483.02" y="-861.4" font-family="Arial Bold" font-size="18.00">public.reset_tokens</text>
<text text-anchor="start" x="622.48" y="-861.4" font-family="Arial" font-size="14.00">    </text>
<text text-anchor="start" x="653.6" y="-861.4" font-family="Arial" font-size="14.00" fill="#666666">[BASE TABLE]</text>
<polygon fill="none" stroke="black" points="476.02,-817.2 476.02,-848 753.97,-848 753.97,-817.2 476.02,-817.2"/>
<text text-anchor="start" x="483.02" y="-829.4" font-family="Arial" font-size="14.00">token_id </text>
<text text-anchor="start" x="539.84" y="-829.4" font-family="Arial" font-size="14.00" fill="#666666">[bigint]</text>
<polygon fill="none" stroke="black" points="476.02,-786.4 476.02,-817.2 753.97,-817.2 753.97,-786.4 476.02,-786.4"/>
<text text-anchor="start" x="483.02" y="-798.6" font-family="Arial" font-size="14.00">token </text>
<text text-anchor="start" x="521.16" y="-798.6" font-family="Arial" font-size="14.00" fill="#666666">[varchar(255)]</text>
<polygon fill="none" stroke="black" points="476.02,-755.6 476.02,-786.4 753.97,-786.4 753.97,-755.6 476.02,-755.6"/>
<text text-anchor="start" x="483.02" y="-767.8" font-family="Arial" font-size="14.00">expires_at </text>
<text text-anchor="start" x="551.5" y="-767.8" font-family="Arial" font-size="14.00" fill="#666666">[timestamp with time zone]</text>
<polygon fill="none" stroke="black" points="476.02,-724.8 476.02,-755.6 753.97,-755.6 753.97,-724.8 476.02,-724.8"/>
<text text-anchor="start" x="483.02" y="-737" font-family="Arial" font-size="14.00">used_at </text>
<text text-anchor="start" x="536.73" y="-737" font-family="Arial" font-size="14.00" fill="#666666">[timestamp with time zone]</text>
<polygon fill="none" stroke="black" points="476.02,-694 476.02,-724.8 753.97,-724.8 753.97,-694 476.02,-694"/>
<text text-anchor="start" x="483.02" y="-706.2" font-family="Arial" font-size="14.00">ip_address </text>
<text text-anchor="start" x="555.4" y="-706.2" font-family="Arial" font-size="14.00" fill="#666666">[inet]</text>
<polygon fill="none" stroke="black" points="476.02,-663.2 476.02,-694 753.97,-694 753.97,-663.2 476.02,-663.2"/>
<text text-anchor="start" x="483.02" y="-675.4" font-family="Arial" font-size="14.00">user_id </text>
<text text-anchor="start" x="532.83" y="-675.4" font-family="Arial" font-size="14.00" fill="#666666">[uuid]</text>
</g>
<!-- public.reset_tokens&#45;&gt;public.users -->
<g id="edge5" class="edge">
<title>public.reset_tokens:user_id&#45;&gt;public.users:user_id</title>
<path fill="none" stroke="black" d="M765.37,-677.72C818.52,-667.71 758.6,-574.91 806,-527.6 934.66,-399.18 1011.96,-397.4 1193.75,-397.4"/>
<polygon fill="black" stroke="black" points="765.27,-677.73 754.93,-674.09 759.96,-678.18 755.64,-678.54 755.64,-678.54 755.64,-678.54 759.96,-678.18 755.69,-683.06 765.27,-677.73"/>
<text text-anchor="start" x="761.97" y="-688.6" font-family="Arial" font-size="10.00">FOREIGN KEY (user_id) REFERENCES users(user_id) ON DELETE CASCADE</text>
</g>
<!-- public.audit_logs -->
<g id="node6" class="node">
<title>public.audit_logs</title>
<polygon fill="#efefef" stroke="none" points="858.51,-940.4 858.51,-976 1121.48,-976 1121.48,-940.4 858.51,-940.4"/>
<polygon fill="none" stroke="black" points="858.51,-940.4 858.51,-976 1121.48,-976 1121.48,-940.4 858.51,-940.4"/>
<text text-anchor="start" x="865.51" y="-953.8" font-family="Arial Bold" font-size="18.00">public.audit_logs</text>
<text text-anchor="start" x="990" y="-953.8" font-family="Arial" font-size="14.00">    </text>
<text text-anchor="start" x="1021.11" y="-953.8" font-family="Arial" font-size="14.00" fill="#666666">[BASE TABLE]</text>
<polygon fill="none" stroke="black" points="858.51,-909.6 858.51,-940.4 1121.48,-940.4 1121.48,-909.6 858.51,-909.6"/>
<text text-anchor="start" x="865.51" y="-921.8" font-family="Arial" font-size="14.00">log_id </text>
<text text-anchor="start" x="906.76" y="-921.8" font-family="Arial" font-size="14.00" fill="#666666">[bigint]</text>
<polygon fill="none" stroke="black" points="858.51,-878.8 858.51,-909.6 1121.48,-909.6 1121.48,-878.8 858.51,-878.8"/>
<text text-anchor="start" x="865.51" y="-891" font-family="Arial" font-size="14.00">action_type </text>
<text text-anchor="start" x="941" y="-891" font-family="Arial" font-size="14.00" fill="#666666">[varchar(100)]</text>
<polygon fill="none" stroke="black" points="858.51,-848 858.51,-878.8 1121.48,-878.8 1121.48,-848 858.51,-848"/>
<text text-anchor="start" x="865.51" y="-860.2" font-family="Arial" font-size="14.00">entity_type </text>
<text text-anchor="start" x="937.11" y="-860.2" font-family="Arial" font-size="14.00" fill="#666666">[varchar(100)]</text>
<polygon fill="none" stroke="black" points="858.51,-817.2 858.51,-848 1121.48,-848 1121.48,-817.2 858.51,-817.2"/>
<text text-anchor="start" x="865.51" y="-829.4" font-family="Arial" font-size="14.00">entity_id </text>
<text text-anchor="start" x="921.54" y="-829.4" font-family="Arial" font-size="14.00" fill="#666666">[varchar(64)]</text>
<polygon fill="none" stroke="black" points="858.51,-786.4 858.51,-817.2 1121.48,-817.2 1121.48,-786.4 858.51,-786.4"/>
<text text-anchor="start" x="865.51" y="-798.6" font-family="Arial" font-size="14.00">description </text>
<text text-anchor="start" x="937.1" y="-798.6" font-family="Arial" font-size="14.00" fill="#666666">[text]</text>
<polygon fill="none" stroke="black" points="858.51,-755.6 858.51,-786.4 1121.48,-786.4 1121.48,-755.6 858.51,-755.6"/>
<text text-anchor="start" x="865.51" y="-767.8" font-family="Arial" font-size="14.00">ip_address </text>
<text text-anchor="start" x="937.89" y="-767.8" font-family="Arial" font-size="14.00" fill="#666666">[inet]</text>
<polygon fill="none" stroke="black" points="858.51,-724.8 858.51,-755.6 1121.48,-755.6 1121.48,-724.8 858.51,-724.8"/>
<text text-anchor="start" x="865.51" y="-737" font-family="Arial" font-size="14.00">user_agent </text>
<text text-anchor="start" x="939.45" y="-737" font-family="Arial" font-size="14.00" fill="#666666">[text]</text>
<polygon fill="none" stroke="black" points="858.51,-694 858.51,-724.8 1121.48,-724.8 1121.48,-694 858.51,-694"/>
<text text-anchor="start" x="865.51" y="-706.2" font-family="Arial" font-size="14.00">was_successful </text>
<text text-anchor="start" x="967.44" y="-706.2" font-family="Arial" font-size="14.00" fill="#666666">[boolean]</text>
<polygon fill="none" stroke="black" points="858.51,-663.2 858.51,-694 1121.48,-694 1121.48,-663.2 858.51,-663.2"/>
<text text-anchor="start" x="865.51" y="-675.4" font-family="Arial" font-size="14.00">error_message </text>
<text text-anchor="start" x="963.55" y="-675.4" font-family="Arial" font-size="14.00" fill="#666666">[text]</text>
<polygon fill="none" stroke="black" points="858.51,-632.4 858.51,-663.2 1121.48,-663.2 1121.48,-632.4 858.51,-632.4"/>
<text text-anchor="start" x="865.51" y="-644.6" font-family="Arial" font-size="14.00">metadata </text>
<text text-anchor="start" x="927.77" y="-644.6" font-family="Arial" font-size="14.00" fill="#666666">[jsonb]</text>
<polygon fill="none" stroke="black" points="858.51,-601.6 858.51,-632.4 1121.48,-632.4 1121.48,-601.6 858.51,-601.6"/>
<text text-anchor="start" x="865.51" y="-613.8" font-family="Arial" font-size="14.00">created_at </text>
<text text-anchor="start" x="935.56" y="-613.8" font-family="Arial" font-size="14.00" fill="#666666">[timestamp with time zone]</text>
<polygon fill="none" stroke="black" points="858.51,-570.8 858.51,-601.6 1121.48,-601.6 1121.48,-570.8 858.51,-570.8"/>
<text text-anchor="start" x="865.51" y="-583" font-family="Arial" font-size="14.00">user_id </text>
<text text-anchor="start" x="915.31" y="-583" font-family="Arial" font-size="14.00" fill="#666666">[uuid]</text>
</g>
<!-- public.audit_logs&#45;&gt;public.users -->
<g id="edge6" class="edge">
<title>public.audit_logs:user_id&#45;&gt;public.users:user_id</title>
<path fill="none" stroke="black" d="M1132.55,-585.27C1203.64,-571.03 1107.74,-397.4 1193.75,-397.4"/>
<polygon fill="black" stroke="black" points="1132.78,-585.25 1122.41,-581.69 1127.46,-585.74 1123.15,-586.14 1123.15,-586.14 1123.15,-586.14 1127.46,-585.74 1123.23,-590.65 1132.78,-585.25"/>
<text text-anchor="start" x="1129.48" y="-570.2" font-family="Arial" font-size="10.00">FOREIGN KEY (user_id) REFERENCES users(user_id) ON DELETE SET NULL</text>
</g>
<!-- public.courses -->
<g id="node7" class="node">
<title>public.courses</title>
<polygon fill="#efefef" stroke="none" points="1225.49,-878.8 1225.49,-914.4 1488.5,-914.4 1488.5,-878.8 1225.49,-878.8"/>
<polygon fill="none" stroke="black" points="1225.49,-878.8 1225.49,-914.4 1488.5,-914.4 1488.5,-878.8 1225.49,-878.8"/>
<text text-anchor="start" x="1243.01" y="-892.2" font-family="Arial Bold" font-size="18.00">public.courses</text>
<text text-anchor="start" x="1346.49" y="-892.2" font-family="Arial" font-size="14.00">    </text>
<text text-anchor="start" x="1377.61" y="-892.2" font-family="Arial" font-size="14.00" fill="#666666">[BASE TABLE]</text>
<polygon fill="none" stroke="black" points="1225.49,-848 1225.49,-878.8 1488.5,-878.8 1488.5,-848 1225.49,-848"/>
<text text-anchor="start" x="1232.49" y="-860.2" font-family="Arial" font-size="14.00">course_id </text>
<text text-anchor="start" x="1297.08" y="-860.2" font-family="Arial" font-size="14.00" fill="#666666">[bigint]</text>
<polygon fill="none" stroke="black" points="1225.49,-817.2 1225.49,-848 1488.5,-848 1488.5,-817.2 1225.49,-817.2"/>
<text text-anchor="start" x="1232.49" y="-829.4" font-family="Arial" font-size="14.00">title </text>
<text text-anchor="start" x="1258.17" y="-829.4" font-family="Arial" font-size="14.00" fill="#666666">[varchar(255)]</text>
<polygon fill="none" stroke="black" points="1225.49,-786.4 1225.49,-817.2 1488.5,-817.2 1488.5,-786.4 1225.49,-786.4"/>
<text text-anchor="start" x="1232.49" y="-798.6" font-family="Arial" font-size="14.00">description </text>
<text text-anchor="start" x="1304.08" y="-798.6" font-family="Arial" font-size="14.00" fill="#666666">[text]</text>
<polygon fill="none" stroke="black" points="1225.49,-755.6 1225.49,-786.4 1488.5,-786.4 1488.5,-755.6 1225.49,-755.6"/>
<text text-anchor="start" x="1232.49" y="-767.8" font-family="Arial" font-size="14.00">status </text>
<text text-anchor="start" x="1273.73" y="-767.8" font-family="Arial" font-size="14.00" fill="#666666">[varchar(20)]</text>
<polygon fill="none" stroke="black" points="1225.49,-724.8 1225.49,-755.6 1488.5,-755.6 1488.5,-724.8 1225.49,-724.8"/>
<text text-anchor="start" x="1232.49" y="-737" font-family="Arial" font-size="14.00">published_at </text>
<text text-anchor="start" x="1315.78" y="-737" font-family="Arial" font-size="14.00" fill="#666666">[timestamp with time zone]</text>
<polygon fill="none" stroke="black" points="1225.49,-694 1225.49,-724.8 1488.5,-724.8 1488.5,-694 1225.49,-694"/>
<text text-anchor="start" x="1232.49" y="-706.2" font-family="Arial" font-size="14.00">created_at </text>
<text text-anchor="start" x="1302.54" y="-706.2" font-family="Arial" font-size="14.00" fill="#666666">[timestamp with time zone]</text>
<polygon fill="none" stroke="black" points="1225.49,-663.2 1225.49,-694 1488.5,-694 1488.5,-663.2 1225.49,-663.2"/>
<text text-anchor="start" x="1232.49" y="-675.4" font-family="Arial" font-size="14.00">updated_at </text>
<text text-anchor="start" x="1306.45" y="-675.4" font-family="Arial" font-size="14.00" fill="#666666">[timestamp with time zone]</text>
<polygon fill="none" stroke="black" points="1225.49,-632.4 1225.49,-663.2 1488.5,-663.2 1488.5,-632.4 1225.49,-632.4"/>
<text text-anchor="start" x="1232.49" y="-644.6" font-family="Arial" font-size="14.00">instructor_id </text>
<text text-anchor="start" x="1312.63" y="-644.6" font-family="Arial" font-size="14.00" fill="#666666">[uuid]</text>
</g>
<!-- public.courses&#45;&gt;public.users -->
<g id="edge7" class="edge">
<title>public.courses:instructor_id&#45;&gt;public.users:user_id</title>
<path fill="none" stroke="black" d="M1357.52,-621.11C1366.18,-539.2 1480.65,-574.63 1519.24,-491.6 1536.89,-453.63 1562.11,-397.4 1520.24,-397.4"/>
<polygon fill="black" stroke="black" points="1357.52,-621.08 1352.52,-630.84 1357.25,-626.41 1357.03,-630.73 1357.03,-630.73 1357.03,-630.73 1357.25,-626.41 1361.51,-631.29 1357.52,-621.08"/>
<text text-anchor="start" x="1364" y="-615.4" font-family="Arial" font-size="10.00">FOREIGN KEY (instructor_id) REFERENCES users(user_id) ON DELETE RESTRICT</text>
</g>
<!-- public.lessons -->
<g id="node8" class="node">
<title>public.lessons</title>
<polygon fill="#efefef" stroke="none" points="1065.16,-1344.8 1065.16,-1380.4 1318.84,-1380.4 1318.84,-1344.8 1065.16,-1344.8"/>
<polygon fill="none" stroke="black" points="1065.16,-1344.8 1065.16,-1380.4 1318.84,-1380.4 1318.84,-1344.8 1065.16,-1344.8"/>
<text text-anchor="start" x="1079" y="-1358.2" font-family="Arial Bold" font-size="18.00">public.lessons</text>
<text text-anchor="start" x="1180.5" y="-1358.2" font-family="Arial" font-size="14.00">    </text>
<text text-anchor="start" x="1211.62" y="-1358.2" font-family="Arial" font-size="14.00" fill="#666666">[BASE TABLE]</text>
<polygon fill="none" stroke="black" points="1065.16,-1314 1065.16,-1344.8 1318.84,-1344.8 1318.84,-1314 1065.16,-1314"/>
<text text-anchor="start" x="1072.16" y="-1326.2" font-family="Arial" font-size="14.00">lesson_id </text>
<text text-anchor="start" x="1135.2" y="-1326.2" font-family="Arial" font-size="14.00" fill="#666666">[bigint]</text>
<polygon fill="none" stroke="black" points="1065.16,-1283.2 1065.16,-1314 1318.84,-1314 1318.84,-1283.2 1065.16,-1283.2"/>
<text text-anchor="start" x="1072.16" y="-1295.4" font-family="Arial" font-size="14.00">title </text>
<text text-anchor="start" x="1097.83" y="-1295.4" font-family="Arial" font-size="14.00" fill="#666666">[varchar(255)]</text>
<polygon fill="none" stroke="black" points="1065.16,-1252.4 1065.16,-1283.2 1318.84,-1283.2 1318.84,-1252.4 1065.16,-1252.4"/>
<text text-anchor="start" x="1072.16" y="-1264.6" font-family="Arial" font-size="14.00">content_markdown </text>
<text text-anchor="start" x="1194.33" y="-1264.6" font-family="Arial" font-size="14.00" fill="#666666">[text]</text>
<polygon fill="none" stroke="black" points="1065.16,-1221.6 1065.16,-1252.4 1318.84,-1252.4 1318.84,-1221.6 1065.16,-1221.6"/>
<text text-anchor="start" x="1072.16" y="-1233.8" font-family="Arial" font-size="14.00">position </text>
<text text-anchor="start" x="1124.3" y="-1233.8" font-family="Arial" font-size="14.00" fill="#666666">[integer]</text>
<polygon fill="none" stroke="black" points="1065.16,-1190.8 1065.16,-1221.6 1318.84,-1221.6 1318.84,-1190.8 1065.16,-1190.8"/>
<text text-anchor="start" x="1072.16" y="-1203" font-family="Arial" font-size="14.00">status </text>
<text text-anchor="start" x="1113.4" y="-1203" font-family="Arial" font-size="14.00" fill="#666666">[varchar(20)]</text>
<polygon fill="none" stroke="black" points="1065.16,-1160 1065.16,-1190.8 1318.84,-1190.8 1318.84,-1160 1065.16,-1160"/>
<text text-anchor="start" x="1072.16" y="-1172.2" font-family="Arial" font-size="14.00">created_at </text>
<text text-anchor="start" x="1142.2" y="-1172.2" font-family="Arial" font-size="14.00" fill="#666666">[timestamp with time zone]</text>
<polygon fill="none" stroke="black" points="1065.16,-1129.2 1065.16,-1160 1318.84,-1160 1318.84,-1129.2 1065.16,-1129.2"/>
<text text-anchor="start" x="1072.16" y="-1141.4" font-family="Arial" font-size="14.00">updated_at </text>
<text text-anchor="start" x="1146.11" y="-1141.4" font-family="Arial" font-size="14.00" fill="#666666">[timestamp with time zone]</text>
<polygon fill="none" stroke="black" points="1065.16,-1098.4 1065.16,-1129.2 1318.84,-1129.2 1318.84,-1098.4 1065.16,-1098.4"/>
<text text-anchor="start" x="1072.16" y="-1110.6" font-family="Arial" font-size="14.00">course_id </text>
<text text-anchor="start" x="1136.75" y="-1110.6" font-family="Arial" font-size="14.00" fill="#666666">[bigint]</text>
</g>
<!-- public.lessons&#45;&gt;public.courses -->
<g id="edge8" class="edge">
<title>public.lessons:course_id&#45;&gt;public.courses:course_id</title>
<path fill="none" stroke="black" d="M1329.7,-1110.97C1340.21,-1102.25 1327.04,-1075.15 1318.84,-1055.2 1296.01,-999.69 1248.14,-1013.19 1225.49,-957.6 1209.69,-918.83 1182.62,-863.4 1224.49,-863.4"/>
<polygon fill="black" stroke="black" points="1329.77,-1110.95 1318.92,-1109.38 1324.64,-1112.42 1320.48,-1113.62 1320.48,-1113.62 1320.48,-1113.62 1324.64,-1112.42 1321.4,-1118.03 1329.77,-1110.95"/>
<text text-anchor="start" x="922.18" y="-1123.8" font-family="Arial" font-size="10.00">FOREIGN KEY (course_id) REFERENCES courses(course_id) ON DELETE CASCADE</text>
</g>
<!-- public.enrollments -->
<g id="node9" class="node">
<title>public.enrollments</title>
<polygon fill="#efefef" stroke="none" points="1423.52,-1314 1423.52,-1349.6 1696.48,-1349.6 1696.48,-1314 1423.52,-1314"/>
<polygon fill="none" stroke="black" points="1423.52,-1314 1423.52,-1349.6 1696.48,-1349.6 1696.48,-1314 1423.52,-1314"/>
<text text-anchor="start" x="1430.52" y="-1327.4" font-family="Arial Bold" font-size="18.00">public.enrollments</text>
<text text-anchor="start" x="1564.99" y="-1327.4" font-family="Arial" font-size="14.00">    </text>
<text text-anchor="start" x="1596.1" y="-1327.4" font-family="Arial" font-size="14.00" fill="#666666">[BASE TABLE]</text>
<polygon fill="none" stroke="black" points="1423.52,-1283.2 1423.52,-1314 1696.48,-1314 1696.48,-1283.2 1423.52,-1283.2"/>
<text text-anchor="start" x="1430.52" y="-1295.4" font-family="Arial" font-size="14.00">user_id </text>
<text text-anchor="start" x="1480.32" y="-1295.4" font-family="Arial" font-size="14.00" fill="#666666">[uuid]</text>
<polygon fill="none" stroke="black" points="1423.52,-1252.4 1423.52,-1283.2 1696.48,-1283.2 1696.48,-1252.4 1423.52,-1252.4"/>
<text text-anchor="start" x="1430.52" y="-1264.6" font-family="Arial" font-size="14.00">course_id </text>
<text text-anchor="start" x="1495.11" y="-1264.6" font-family="Arial" font-size="14.00" fill="#666666">[bigint]</text>
<polygon fill="none" stroke="black" points="1423.52,-1221.6 1423.52,-1252.4 1696.48,-1252.4 1696.48,-1221.6 1423.52,-1221.6"/>
<text text-anchor="start" x="1430.52" y="-1233.8" font-family="Arial" font-size="14.00">status </text>
<text text-anchor="start" x="1471.76" y="-1233.8" font-family="Arial" font-size="14.00" fill="#666666">[varchar(20)]</text>
<polygon fill="none" stroke="black" points="1423.52,-1190.8 1423.52,-1221.6 1696.48,-1221.6 1696.48,-1190.8 1423.52,-1190.8"/>
<text text-anchor="start" x="1430.52" y="-1203" font-family="Arial" font-size="14.00">enrolled_at </text>
<text text-anchor="start" x="1503.68" y="-1203" font-family="Arial" font-size="14.00" fill="#666666">[timestamp with time zone]</text>
<polygon fill="none" stroke="black" points="1423.52,-1160 1423.52,-1190.8 1696.48,-1190.8 1696.48,-1160 1423.52,-1160"/>
<text text-anchor="start" x="1430.52" y="-1172.2" font-family="Arial" font-size="14.00">completed_at </text>
<text text-anchor="start" x="1518.46" y="-1172.2" font-family="Arial" font-size="14.00" fill="#666666">[timestamp with time zone]</text>
<polygon fill="none" stroke="black" points="1423.52,-1129.2 1423.52,-1160 1696.48,-1160 1696.48,-1129.2 1423.52,-1129.2"/>
<text text-anchor="start" x="1430.52" y="-1141.4" font-family="Arial" font-size="14.00">dropped_at </text>
<text text-anchor="start" x="1505.25" y="-1141.4" font-family="Arial" font-size="14.00" fill="#666666">[timestamp with time zone]</text>
</g>
<!-- public.enrollments&#45;&gt;public.users -->
<g id="edge9" class="edge">
<title>public.enrollments:user_id&#45;&gt;public.users:user_id</title>
<path fill="none" stroke="black" d="M1707.42,-1298.07C1788.42,-1288.94 1742.41,-1164.54 1696.48,-1086 1666.15,-1034.15 1611.18,-1069.91 1579,-1019.2 1541.81,-960.61 1589.64,-397.4 1520.24,-397.4"/>
<polygon fill="black" stroke="black" points="1707.8,-1298.05 1697.57,-1294.09 1702.47,-1298.33 1698.15,-1298.56 1698.15,-1298.56 1698.15,-1298.56 1702.47,-1298.33 1698.05,-1303.08 1707.8,-1298.05"/>
<text text-anchor="start" x="1704.48" y="-1308.6" font-family="Arial" font-size="10.00">FOREIGN KEY (user_id) REFERENCES users(user_id) ON DELETE CASCADE</text>
</g>
<!-- public.enrollments&#45;&gt;public.courses -->
<g id="edge10" class="edge">
<title>public.enrollments:course_id&#45;&gt;public.courses:course_id</title>
<path fill="none" stroke="black" d="M1412.48,-1267.19C1347.27,-1258.57 1405.39,-1161.01 1423.52,-1086 1438.53,-1023.83 1473.33,-1019.73 1488.5,-957.6 1498.44,-916.93 1531.37,-863.4 1489.5,-863.4"/>
<polygon fill="black" stroke="black" points="1412.2,-1267.17 1421.91,-1272.27 1417.52,-1267.49 1421.85,-1267.76 1421.85,-1267.76 1421.85,-1267.76 1417.52,-1267.49 1422.46,-1263.29 1412.2,-1267.17"/>
<text text-anchor="start" x="1429.52" y="-1277.8" font-family="Arial" font-size="10.00">FOREIGN KEY (course_id) REFERENCES courses(course_id) ON DELETE CASCADE</text>
</g>
</g>
</svg>
